<?xml version="1.0" encoding="UTF-8" standalone="no"?>
<svg
   xmlns:dc="http://purl.org/dc/elements/1.1/"
   xmlns:cc="http://creativecommons.org/ns#"
   xmlns:rdf="http://www.w3.org/1999/02/22-rdf-syntax-ns#"
   xmlns:svg="http://www.w3.org/2000/svg"
   xmlns="http://www.w3.org/2000/svg"
   xmlns:sodipodi="http://sodipodi.sourceforge.net/DTD/sodipodi-0.dtd"
   xmlns:inkscape="http://www.inkscape.org/namespaces/inkscape"
   sodipodi:docname="java-poetic.svg"
   inkscape:version="0.48.5 r10040"
   xml:space="preserve"
   width="500px"
   viewBox="0 0 500 500"
   version="1.1"
   id="Layer_1"
   height="500px"
   enable-background="new 0 0 500 500"
   inkscape:export-filename="D:\yjchen\java-poetic.png"
   inkscape:export-xdpi="23.040001"
   inkscape:export-ydpi="23.040001"><sodipodi:namedview
   pagecolor="#ffffff"
   bordercolor="#666666"
   borderopacity="1"
   objecttolerance="10"
   gridtolerance="10"
   guidetolerance="10"
   inkscape:pageopacity="0"
   inkscape:pageshadow="2"
   inkscape:window-width="1920"
   inkscape:window-height="1028"
   id="namedview5"
   showgrid="false"
   inkscape:zoom="0.3337544"
   inkscape:cx="797.31217"
   inkscape:cy="-276.87461"
   inkscape:window-x="-8"
   inkscape:window-y="-8"
   inkscape:window-maximized="1"
   inkscape:current-layer="Layer_1" /><metadata
   id="metadata9"><rdf:RDF><cc:Work
       rdf:about=""><dc:format>image/svg+xml</dc:format><dc:type
         rdf:resource="http://purl.org/dc/dcmitype/StillImage" /><dc:title /></cc:Work></rdf:RDF></metadata><defs
   id="defs7"><clipPath
     clipPathUnits="userSpaceOnUse"
     id="clipPath5077"><path
       sodipodi:type="arc"
       style="fill:#656355;fill-opacity:1;fill-rule:nonzero;stroke:none"
       id="path5079"
       sodipodi:cx="207.62712"
       sodipodi:cy="283.89832"
       sodipodi:rx="252.11864"
       sodipodi:ry="252.11864"
       d="m 459.74576,283.89832 a 252.11864,252.11864 0 1 1 -504.237276,0 252.11864,252.11864 0 1 1 504.237276,0 z"
       transform="matrix(0.96848739,0,0,0.96848739,54.742023,-24.422269)" /></clipPath></defs><path
   style="fill:#010101;fill-rule:evenodd"
   inkscape:connector-curvature="0"
   id="path3"
   d="m 1497.8993,206.81752 -154.001,153.989 c -3.27,3.275 -5.267,7.818 -5.267,12.815 0,9.988 8.089,18.168 18.172,18.168 2.635,0 5.083,-0.55 7.355,-1.544 0,0 256.578,-111.206 259.485,-112.574 5.991,-2.713 10.63,-7.985 12.448,-14.531 l 41.526,-149.635 8.356,8.268 c 8.715,8.722 22.803,8.722 31.514,0 8.731,-8.721 8.731,-22.811002 0,-31.524002 L 1589.4763,-37.77148 c -8.712,-8.721 -22.804,-8.721 -31.515,0 -8.731,8.721 -8.731,22.810998 0,31.5239976 l 8.26,8.268 -149.911,41.7010004 c -6.543,1.917 -11.811,6.637 -14.539,12.812 l -112.387,259.310002 c -0.906,2.174 -1.452,4.543 -1.452,7.08 0,10.087 8.177,18.172 18.172,18.172 5.181,0 9.812,-2.094 13.083,-5.536 l 153.724,-153.726 c -2.088,-5.369 -3.269,-11.093 -3.269,-17.178 0,-25.074 20.354,-45.428 45.429,-45.428 25.072,0 45.426,20.354 45.426,45.428 0,25.074 -20.354,45.429 -45.426,45.429 -6.086,0 -11.81,-1.181 -17.172,-3.267 z"
   clip-rule="evenodd" /><path
   sodipodi:nodetypes="ssssscssssscsscss"
   inkscape:connector-curvature="0"
   id="path3034"
   d="m 1266.8038,1068.9679 c -6.5469,-2.6416 -9.9193,-22.0317 -9.9193,-57.0232 0,-38.80357 -4.4964,-61.40884 -16.7662,-84.303 -15.3343,-28.61064 -15.94,-35.03901 -7.0833,-75.26949 9.1689,-41.64633 59.701,-177.3858 96.8065,-260.04234 l 17.0049,-37.88005 9.9759,95.22569 c 15.325,146.29095 19.9424,143.60113 -7.9213,152.00734 -45.1687,13.62704 -77.8771,61.36193 -48.1439,103.81308 24.8858,35.52895 96.125,31.73928 111.9175,-12.87991 7.2544,-20.49503 9.4186,-14.18284 -5.2663,-135.0902 -8.6091,-70.8849 -21.5534,-129.00447 -27.9802,-184.0269 24.0245,47.80035 109.0889,239.53404 120.0357,280.75297 8.9055,33.53111 3.9165,41.70013 -9.0335,70.41821 -9.3219,20.67183 -14.7711,51.61003 -14.9848,85.0684 -0.1808,28.9199 0.7985,57.0339 -6.9712,60.4551 -14.6504,6.4511 -185.9226,5.1288 -201.6705,-1.2257 z"
   style="fill:#3e3c34;fill-opacity:1;stroke:#3e3c34;stroke-width:18.25159264;stroke-linecap:square;stroke-linejoin:miter;stroke-miterlimit:51.20000076;stroke-opacity:1;stroke-dasharray:none" /><path
   sodipodi:nodetypes="cssssscsssscsssscc"
   inkscape:connector-curvature="0"
   id="path3038-7-4"
   d="M 930.85107,457.13725 C 907.32635,452.0704 907.2286,451.80392 906.68996,391.29044 906.3018,347.70128 902.16628,324.45308 892.05518,309.02323 863.69291,265.74164 875.53259,209.45798 954.35372,12.867836 1001.4726,-104.65248 1022.8578,-143.374 1022.9969,-111.4223 c 0.09,20.734376 14.2287,189.263956 20.4144,243.33714 l 4.8367,42.28197 -23.8484,0 c -50.97081,0 -79.75034,52.70503 -49.6646,90.95283 36.1324,45.93488 102.4951,17.26816 102.4951,-44.10046 0,-16.05183 -7.47,-87.62466 -16.5999,-159.050684 -9.13,-71.4260305 -26.5169,-180.523166 -25.0269,-187.994916 1.4901,-7.47174 33.3616,78.073706 57.2148,135.6577056 77.2458,186.4794144 96.0394,255.7161944 73.0955,295.9377844 -5.5191,9.67521 -11.8614,46.56387 -14.094,81.97467 -4.0244,63.83006 -4.2669,64.42742 -28.2204,69.51711 -31.1548,6.61983 -162.08204,6.65131 -192.74813,0.0484 z"
   style="fill:#656355" /><g
   id="g5081"
   transform="translate(-5.8262715,-0.52966954)"><path
   sodipodi:type="arc"
   style="fill:#656355;fill-opacity:1;fill-rule:nonzero;stroke:none"
   id="path3916"
   sodipodi:cx="207.62712"
   sodipodi:cy="283.89832"
   sodipodi:rx="252.11864"
   sodipodi:ry="252.11864"
   d="m 459.74576,283.89832 c 0,139.24127 -112.87736,252.11863 -252.11864,252.11863 -139.241277,0 -252.118636,-112.87736 -252.118636,-252.11863 0,-139.24128 112.877359,-252.118642 252.118636,-252.118642 139.24128,0 252.11864,112.877362 252.11864,252.118642 z"
   transform="matrix(0.96848739,0,0,0.96848739,54.742023,-24.422269)" /><g
   clip-path="url(#clipPath5077)"
   style="fill:#3e3c34;fill-opacity:1"
   id="g4075"><g
     style="fill:#3e3c34;fill-opacity:1"
     id="g4077"><path
       style="fill:#3e3c34;fill-opacity:1"
       d="m 264.0666,416.176 c -4.45017,-0.9585 -7.3242,-1.59403 -9.19321,-3.46304 L 537.7161,695.55567 c 1.86901,1.86901 4.74305,2.50454 9.19321,3.46304 z"
       id="path4079"
       inkscape:connector-curvature="0" /><path
       style="fill:#3e3c34;fill-opacity:1"
       d="m 254.87339,412.71296 c -3.38616,-3.38616 -3.4734,-10.82108 -3.65801,-31.56067 L 534.05809,663.995 c 0.18461,20.7396 0.27185,28.17451 3.65801,31.56067 z"
       id="path4081"
       inkscape:connector-curvature="0" /><path
       style="fill:#3e3c34;fill-opacity:1"
       d="m 251.21538,381.15229 c -0.20646,-23.18493 -2.40614,-35.55057 -7.7842,-43.75766 l 282.84271,282.84271 c 5.37806,8.20709 7.57774,20.57273 7.7842,43.75766 z"
       id="path4083"
       inkscape:connector-curvature="0" /><path
       style="fill:#3e3c34;fill-opacity:1"
       d="m 243.43118,337.39463 c -15.08581,-23.02135 -8.7883,-52.95844 33.1364,-157.5241 l 282.84271,282.84271 c -41.9247,104.56566 -48.22221,134.50275 -33.1364,157.5241 z"
       id="path4085"
       inkscape:connector-curvature="0" /><path
       style="fill:#3e3c34;fill-opacity:1"
       d="m 276.56758,179.87053 c 20.7757,-51.81722 32.14558,-74.83298 35.46934,-71.50922 l 282.84271,282.84272 c -3.32376,-3.32377 -14.69364,19.69199 -35.46934,71.50921 z"
       id="path4087"
       inkscape:connector-curvature="0" /><path
       style="fill:#3e3c34;fill-opacity:1"
       d="m 312.03692,108.36131 c 0.68579,0.68579 1.02904,2.49291 1.0417,5.39972 l 282.84271,282.84271 c -0.0127,-2.90681 -0.35591,-4.71392 -1.0417,-5.39971 z"
       id="path4089"
       inkscape:connector-curvature="0" /><path
       style="fill:#3e3c34;fill-opacity:1"
       d="m 313.07862,113.76103 c 0.0479,11.02854 7.56829,100.66888 10.85841,129.43022 L 606.77974,526.03396 C 603.48962,497.27262 595.96923,407.63228 595.92133,396.60374 z"
       id="path4091"
       inkscape:connector-curvature="0" /><path
       style="fill:#3e3c34;fill-opacity:1"
       d="m 323.93703,243.19125 2.57265,22.48964 282.84271,282.84271 -2.57265,-22.48964 z"
       id="path4093"
       inkscape:connector-curvature="0" /><path
       style="fill:#3e3c34;fill-opacity:1"
       d="m 326.50968,265.68089 -12.68488,0 282.84271,282.84271 12.68488,0 z"
       id="path4095"
       inkscape:connector-curvature="0" /><path
       style="fill:#3e3c34;fill-opacity:1"
       d="m 313.8248,265.68089 c -27.11125,0 -42.41899,28.03364 -26.41649,48.37752 l 282.84271,282.84271 c -16.0025,-20.34388 -0.69476,-48.37752 26.41649,-48.37752 z"
       id="path4097"
       inkscape:connector-curvature="0" /><path
       style="fill:#3e3c34;fill-opacity:1"
       d="m 287.40831,314.05841 c 0.92815,1.17995 1.8938,2.26735 2.89117,3.26472 l 282.84271,282.84271 c -0.99737,-0.99736 -1.96302,-2.08477 -2.89117,-3.26472 z"
       id="path4099"
       inkscape:connector-curvature="0" /><path
       style="fill:#3e3c34;fill-opacity:1"
       d="m 290.29948,317.32313 c 19.65458,19.65458 51.62569,4.34377 51.62569,-26.72162 l 282.84271,282.84271 c 0,31.06539 -31.97111,46.3762 -51.62569,26.72162 z"
       id="path4101"
       inkscape:connector-curvature="0" /><path
       style="fill:#3e3c34;fill-opacity:1"
       d="m 341.92517,290.60151 c 0,-8.53792 -3.97329,-46.60726 -8.82945,-84.59853 l 282.84271,282.84271 c 4.85616,37.99127 8.82945,76.06061 8.82945,84.59853 z"
       id="path4103"
       inkscape:connector-curvature="0" /><path
       style="fill:#3e3c34;fill-opacity:1"
       d="M 333.09572,206.00298 C 328.23949,168.01171 318.99146,109.9833 319.78398,106.0091 l 282.84271,282.84271 c -0.79252,3.9742 8.45551,62.00261 13.31174,99.99388 z"
       id="path4105"
       inkscape:connector-curvature="0" /><path
       style="fill:#3e3c34;fill-opacity:1"
       d="m 319.78398,106.0091 c 0.0597,-0.29915 0.21089,-0.31797 0.44497,-0.0839 l 282.84271,282.84271 c -0.23408,-0.23408 -0.38531,-0.21526 -0.44497,0.0839 z"
       id="path4107"
       inkscape:connector-curvature="0" /><path
       style="fill:#3e3c34;fill-opacity:1"
       d="m 320.22895,105.92521 c 2.87561,2.87561 18.255,43.9166 29.98739,72.23978 L 633.05905,461.0077 c -11.73239,-28.32318 -27.11178,-69.36416 -29.98739,-72.23978 z"
       id="path4109"
       inkscape:connector-curvature="0" /><path
       style="fill:#3e3c34;fill-opacity:1"
       d="m 350.21634,178.16499 c 41.08682,99.18778 51.08307,136.01461 38.87928,157.40834 l 282.84271,282.84271 c 12.20379,-21.39373 2.20754,-58.22056 -38.87928,-157.40834 z"
       id="path4111"
       inkscape:connector-curvature="0" /><path
       style="fill:#3e3c34;fill-opacity:1"
       d="m 389.09562,335.57333 c -2.93561,5.1462 -6.30907,24.76716 -7.49656,43.60207 l 282.84271,282.84271 c 1.18749,-18.83491 4.56095,-38.45587 7.49656,-43.60207 z"
       id="path4113"
       inkscape:connector-curvature="0" /><path
       style="fill:#3e3c34;fill-opacity:1"
       d="m 381.59906,379.1754 c -2.14054,33.95099 -2.26951,34.26873 -15.0103,36.97591 l 282.84271,282.84271 c 12.74079,-2.70718 12.86976,-3.02492 15.0103,-36.97591 z"
       id="path4115"
       inkscape:connector-curvature="0" /><path
       style="fill:#3e3c34;fill-opacity:1"
       d="m 366.58876,416.15131 c -16.57119,3.52107 -86.21098,3.53781 -102.52216,0.0258 l 282.84271,282.84271 c 16.31118,3.51201 85.95097,3.49527 102.52216,-0.0258 z"
       id="path4117"
       inkscape:connector-curvature="0" /></g><path
     sodipodi:nodetypes="cssssscsssscsssscc"
     inkscape:connector-curvature="0"
     id="path4053"
     d="m 264.0666,416.176 c -12.51272,-2.69505 -12.56472,-2.83679 -12.85122,-35.02371 -0.20646,-23.18493 -2.40614,-35.55057 -7.7842,-43.75766 -15.08581,-23.02135 -8.7883,-52.95844 33.1364,-157.5241 25.06234,-62.50865 36.43704,-83.104508 36.51104,-66.1095 0.0479,11.02854 7.56829,100.66888 10.85841,129.43022 l 2.57265,22.48964 -12.68488,0 c -27.11125,0 -42.41899,28.03364 -26.41649,48.37752 19.21869,24.43262 54.51686,9.18489 54.51686,-23.4569 0,-8.53792 -3.97329,-46.60726 -8.82945,-84.59853 -4.85623,-37.99127 -14.10426,-96.01968 -13.31174,-99.99388 0.79259,-3.97418 17.74493,41.52715 30.43236,72.15589 41.08682,99.18778 51.08307,136.01461 38.87928,157.40834 -2.93561,5.1462 -6.30907,24.76716 -7.49656,43.60207 -2.14054,33.95099 -2.26951,34.26873 -15.0103,36.97591 -16.57119,3.52107 -86.21098,3.53781 -102.52216,0.0258 z"
     style="fill:#3e3c34;fill-opacity:1" /></g><path
   style="fill:#ffffff"
   d="m 264.0666,416.176 c -12.51272,-2.69505 -12.56472,-2.83679 -12.85122,-35.02371 -0.20646,-23.18493 -2.40614,-35.55057 -7.7842,-43.75766 -15.08581,-23.02135 -8.7883,-52.95844 33.1364,-157.5241 25.06234,-62.50865 36.43704,-83.104508 36.51104,-66.1095 0.0479,11.02854 7.56829,100.66888 10.85841,129.43022 l 2.57265,22.48964 -12.68488,0 c -27.11125,0 -42.41899,28.03364 -26.41649,48.37752 19.21869,24.43262 54.51686,9.18489 54.51686,-23.4569 0,-8.53792 -3.97329,-46.60726 -8.82945,-84.59853 -4.85623,-37.99127 -14.10426,-96.01968 -13.31174,-99.99388 0.79259,-3.97418 17.74493,41.52715 30.43236,72.15589 41.08682,99.18778 51.08307,136.01461 38.87928,157.40834 -2.93561,5.1462 -6.30907,24.76716 -7.49656,43.60207 -2.14054,33.95099 -2.26951,34.26873 -15.0103,36.97591 -16.57119,3.52107 -86.21098,3.53781 -102.52216,0.0258 z"
   id="path3038-7"
   inkscape:connector-curvature="0"
   sodipodi:nodetypes="cssssscsssscsssscc" /><text
   xml:space="preserve"
   style="font-size:207.93928528px;font-style:italic;font-variant:normal;font-weight:900;font-stretch:normal;text-align:start;line-height:125%;letter-spacing:0px;word-spacing:0px;writing-mode:lr-tb;text-anchor:start;fill:#ffffff;fill-opacity:1;stroke:none;font-family:Cooper Std Black;-inkscape-font-specification:'Cooper Std Black, Heavy Italic'"
   x="90.651787"
   y="238.74901"
   id="text3870"
   sodipodi:linespacing="125%"><tspan
     sodipodi:role="line"
     id="tspan3872"
     x="90.651787"
     y="238.74901">@</tspan></text>



</g>
<path
   sodipodi:nodetypes="cssssscsssscsssscc"
   inkscape:connector-curvature="0"
   id="path3038-7-4-1"
   d="m 931.99951,1089.8004 c -23.5247,-5.0669 -23.6225,-5.3334 -24.1611,-65.8469 -0.3882,-43.58912 -4.5237,-66.83732 -14.6348,-82.26717 -28.3622,-43.28159 -16.5226,-99.56525 62.2986,-296.15539 47.11879,-117.52032 68.50399,-156.24184 68.64309,-124.29014 0.09,20.73438 14.2288,189.26396 20.4145,243.33714 l 4.8367,42.28197 -23.8484,0 c -50.97089,0 -79.75039,52.70503 -49.66469,90.95283 36.13239,45.93488 102.49519,17.26816 102.49519,-44.10046 0,-16.05183 -7.47,-87.62466 -16.5999,-159.05068 -9.13,-71.42603 -25.2381,-164.66775 -23.7481,-172.1395 1.4901,-7.47174 32.0828,62.21829 55.936,119.80229 77.2458,186.47941 96.0394,255.71619 73.0955,295.93778 -5.5191,9.67521 -11.8614,46.56387 -14.094,81.97463 -4.0244,63.8301 -4.2669,64.4275 -28.2204,69.5172 -31.1548,6.6198 -162.08209,6.6513 -192.74819,0.048 z"
   style="fill:#656355" /></svg>